<?xml version="1.0" encoding="utf-8"?>
<!-- Generator: Adobe Illustrator 17.0.0, SVG Export Plug-In . SVG Version: 6.00 Build 0)  -->
<!DOCTYPE svg PUBLIC "-//W3C//DTD SVG 1.1//EN" "http://www.w3.org/Graphics/SVG/1.1/DTD/svg11.dtd">
<svg version="1.1" id="Layer_1" xmlns="http://www.w3.org/2000/svg" xmlns:xlink="http://www.w3.org/1999/xlink" x="0px" y="0px"
	 width="155px" height="22.302px" viewBox="0 -2.302 155 22.302" enable-background="new 0 -2.302 155 22.302" xml:space="preserve"
	>
<g>
	<g>
		<g>
			<path fill="#FFFFFF" d="M14.409-2.025L0.932,11.452l5.208,0.002l8.269,8.268l8.275-8.274l5.202,0.002L14.409-2.025z
				 M11.106,13.253l3.311-3.311l3.303,3.302l-3.311,3.311L11.106,13.253z M18.743,12.22l-4.325-4.326l-0.043,0.042l-4.292,4.293
				L7.559,9.705l6.851-6.852l6.85,6.852L18.743,12.22z"/>
		</g>
	</g>
	<g>
		<g>
			<g>
				<path fill="#FFFFFF" d="M43.878,15.432c-1.289,1.311-2.835,1.898-4.709,1.898c-1.781,0-3.281-0.609-4.499-1.827
					c-0.727-0.726-1.173-1.569-1.359-2.507c-0.188-0.936-0.282-2.318-0.282-4.146c0-1.827,0.094-3.209,0.282-4.147
					c0.186-0.96,0.632-1.78,1.359-2.507c1.217-1.219,2.717-1.826,4.499-1.826c3.795,0,5.833,2.436,6.28,5.342h-3.281
					c-0.398-1.617-1.381-2.437-2.997-2.437c-0.869,0-1.57,0.306-2.085,0.892c-0.61,0.772-0.797,1.381-0.797,4.684
					c0,3.28,0.139,3.935,0.797,4.71c0.492,0.587,1.194,0.866,2.085,0.866c0.96,0,1.733-0.305,2.318-0.938
					c0.493-0.56,0.751-1.31,0.751-2.224V10.63h-3.069V7.913h6.301v2.436C45.47,12.784,45.026,14.214,43.878,15.432z"/>
				<path fill="#FFFFFF" d="M59.489,17.19l-0.984-2.951h-5.927L51.57,17.19h-3.395l6.066-16.681h2.552l6.091,16.681H59.489z
					 M55.599,5.429l-2.108,6.068h4.146L55.599,5.429z"/>
				<path fill="#FFFFFF" d="M71.256,17.33c-2.529,0-4.451-0.538-6.092-2.203l2.109-2.108c1.055,1.055,2.482,1.405,4.029,1.405
					c1.922,0,2.952-0.726,2.952-2.06c0-0.587-0.164-1.078-0.515-1.406c-0.328-0.305-0.704-0.468-1.477-0.587l-2.014-0.282
					c-1.428-0.21-2.482-0.655-3.232-1.382c-0.798-0.795-1.195-1.874-1.195-3.279c0-2.974,2.203-5.06,5.81-5.06
					c2.297,0,3.961,0.561,5.39,1.944l-2.063,2.038c-1.054-1.008-2.319-1.148-3.422-1.148c-1.732,0-2.576,0.961-2.576,2.107
					c0,0.423,0.14,0.867,0.493,1.195C69.781,6.811,70.32,7.067,71,7.162l1.968,0.28c1.523,0.211,2.485,0.633,3.187,1.288
					c0.889,0.844,1.288,2.063,1.288,3.539C77.442,15.503,74.747,17.33,71.256,17.33z"/>
				<path fill="#FFFFFF" d="M81.914,17.19V0.508h3.257v13.777h7.568v2.904H81.914z"/>
				<path fill="#FFFFFF" d="M96.79,17.19V0.508h3.257V17.19H96.79z"/>
				<path fill="#FFFFFF" d="M115.626,15.432c-1.289,1.311-2.835,1.898-4.709,1.898c-1.781,0-3.281-0.609-4.499-1.827
					c-0.726-0.726-1.172-1.569-1.36-2.507c-0.185-0.936-0.281-2.318-0.281-4.146c0-1.827,0.096-3.209,0.281-4.147
					c0.189-0.96,0.634-1.78,1.36-2.507c1.217-1.219,2.717-1.826,4.499-1.826c3.795,0,5.833,2.436,6.28,5.342h-3.28
					c-0.399-1.617-1.383-2.437-2.999-2.437c-0.867,0-1.57,0.306-2.085,0.892c-0.611,0.772-0.797,1.381-0.797,4.684
					c0,3.28,0.14,3.935,0.797,4.71c0.492,0.587,1.195,0.866,2.085,0.866c0.96,0,1.733-0.305,2.319-0.938
					c0.493-0.56,0.749-1.31,0.749-2.224V10.63h-3.068V7.913h6.302v2.436C117.219,12.784,116.774,14.214,115.626,15.432z"/>
				<path fill="#FFFFFF" d="M130.571,17.19v-6.982h-5.647v6.982h-3.256V0.508h3.256v6.82h5.647v-6.82h3.257V17.19H130.571z"/>
				<path fill="#FFFFFF" d="M145.495,3.414V17.19h-3.257V3.414h-4.357V0.508h11.971v2.906H145.495z"/>
			</g>
		</g>
	</g>
</g>
</svg>
