<?xml version="1.0" encoding="utf-8"?>
<!-- Generator: Adobe Illustrator 17.0.0, SVG Export Plug-In . SVG Version: 6.00 Build 0)  -->
<!DOCTYPE svg PUBLIC "-//W3C//DTD SVG 1.1//EN" "http://www.w3.org/Graphics/SVG/1.1/DTD/svg11.dtd">
<svg version="1.1" id="Layer_1" xmlns="http://www.w3.org/2000/svg" xmlns:xlink="http://www.w3.org/1999/xlink" x="0px" y="0px"
	 width="200px" height="200px" viewBox="0 0 200 200" enable-background="new 0 0 200 200" xml:space="preserve">
<path fill="#E63C2F" d="M58.41,124.957c0.718-22.201,1.398-44.421,2.056-66.644c0.117-3.949,1.755-2.658,5.699-2.729
	c7.249-0.132,14.497-0.264,21.746-0.395c3.546-0.064,13.904,8.448,15.45,4.269c2.417,1.668,3.43,3.932,6.584,5.626
	c2.075,1.115,5.438-1.797,7.473-2.26c2.632-0.599,5.955-0.369,8.72-0.545c5.266-0.334,12.042-6.711,16.49-9.419
	c3.898-2.373,6.647-3.445,10.814-5.165c0.276,12.072,0.596,24.145,0.845,36.202c0.052,2.525-1.065,2.306-1.304,3.31
	c0.031-0.13-2.835-0.004-1.592,1.597c3.573,4.602-1.332,13.605-1.968,18.981c-2.425-0.59-1.11,5.788-1.826,6.126
	c0.042-0.02-2.426,2.83-2.851,3.341c-0.439,0.529-1.085,1.152-1.597,1.598c-1.351,1.177-2.265,3.437-3.767,4.266
	c-0.725,0.4-2.911,1.107-3.684,1.271c-0.755,0.16-0.435-2.558-1.898-1.683c-2.598,1.553-1.052,3.796-3.865,3.705
	c-2.616-0.085-1.595,5.818-3.83,5.719c0.801,1.469,1.117,2.953,1.273,4.47c-1.424-0.915-2.312-0.182-2.915,1.514
	c-0.301-0.19-0.601-0.379-0.902-0.569c1.696-3.788-1.815-3.566-3.234-2.644c-1.093,0.71-1.125,2.616-1.52,3.505
	c-0.162,0.365-1.16,1.406-1.177,1.477c-0.412,1.794,0.818,4.243,0.362,5.939c0.472-1.753-3.698,3.112-2.873,2.419
	c-1.089,0.914-0.688,1.841-2.001,2.663c-1.054,0.66-4.235,1.547-4.734-0.205c-0.298-1.046-1.594-2.285-2.444-3.012
	c-2.538-2.17-2.697-1.095-4.06-6.088c-3.735,0.471-6.385,4.937-9.711,4.346c-0.838-0.149-2.931-2.918-4.741-2.953
	c-0.721-0.014-2.924,1.409-2.746,1.437c-2.389-0.383-2.08-0.494-4.43-1.965c-0.967-0.606-1.728-2.363-3.506-1.93
	c-5.326,1.297-5.848-2.883-7.269-6.787c-1.023-2.813-3.416-2.068-4.817-2.556c-0.516-0.18-2.695-0.257-3.497-0.376
	c-1.627-0.24-0.751-2.186-2.957-0.077C58.276,128.81,58.343,126.883,58.41,124.957z"/>
<polygon fill="#F5755F" points="59.445,106.212 66.485,120.476 82.227,122.763 70.836,133.867 73.525,149.545 59.445,142.143 
	45.365,149.545 48.054,133.867 36.663,122.763 52.405,120.476 "/>
<polygon fill="#FEA491" points="59.445,106.212 67.895,120.476 82.98,122.763 70.968,133.867 73.525,149.545 59.975,142.349 "/>
</svg>
