<?xml version="1.0" encoding="utf-8"?>
<!-- Generator: Adobe Illustrator 17.0.0, SVG Export Plug-In . SVG Version: 6.00 Build 0)  -->
<!DOCTYPE svg PUBLIC "-//W3C//DTD SVG 1.1//EN" "http://www.w3.org/Graphics/SVG/1.1/DTD/svg11.dtd">
<svg version="1.1" id="Layer_1" xmlns="http://www.w3.org/2000/svg" xmlns:xlink="http://www.w3.org/1999/xlink" x="0px" y="0px"
	 width="168px" height="168px" viewBox="0 0 168 168" enable-background="new 0 0 168 168" xml:space="preserve">
<g>
	<path fill="#FFFFFF" d="M120.672,64.804c0.891-2.875,2.081-9.261-1.188-17.436c0,0-5.767-1.831-18.811,6.899
		c-5.11-1.277-10.548-1.908-15.995-1.908c-5.992,0-12.047,0.763-17.694,2.312c-13.462-9.185-19.405-7.304-19.405-7.304
		c-3.88,9.7-1.481,16.882-0.752,18.665c-4.56,4.92-7.343,11.201-7.343,18.902c0,5.813,0.663,11.029,2.28,15.561l0.211,0.57
		c0,0,0.753,1.849,1.197,2.728l0.291,0.553c4.544,8.47,13.366,14.114,29.442,15.659c16.076,1.546,24.106,0.028,24.106,0.028
		c16.998-1.685,25.155-7.174,28.914-15.702l0.239-0.556l0.943-2.679l0.165-0.569c1.26-4.541,1.639-9.767,1.639-15.594
		C128.91,76.577,125.77,69.892,120.672,64.804z M84.638,116.873c-18.529,0-33.548-2.79-33.548-20.695
		c0-4.287,2.112-8.267,5.728-11.57c6.031-5.505,16.24-2.59,27.82-2.59c11.534,0,21.704-2.945,27.744,2.523
		c3.661,3.317,5.803,7.322,5.803,11.637C118.185,116.327,103.165,116.873,84.638,116.873z"/>
	<path fill="#AC5E54" d="M73.383,97.206"/>
	<path fill="#FFFFFF" d="M71.144,97.332c0,3.699-2.085,6.697-4.654,6.697c-2.571,0-4.654-2.998-4.654-6.697
		c0-3.701,2.082-6.7,4.654-6.7C69.059,90.632,71.144,93.631,71.144,97.332L71.144,97.332z M71.144,97.332"/>
	<path fill="#AC5E54" d="M110.832,97.206"/>
	<path fill="#FFFFFF" d="M108.591,97.332c0,3.699-2.084,6.697-4.654,6.697c-2.57,0-4.654-2.998-4.654-6.697
		c0-3.701,2.084-6.7,4.654-6.7C106.507,90.632,108.591,93.631,108.591,97.332L108.591,97.332z M108.591,97.332"/>
	<path fill="#FFFFFF" d="M86.384,106.129c0,0.964-0.781,1.746-1.746,1.746c-0.964,0-1.746-0.781-1.746-1.746
		c0-0.964,0.781-1.746,1.746-1.746C85.602,104.384,86.384,105.165,86.384,106.129L86.384,106.129z M86.384,106.129"/>
	<path fill="#FFFFFF" d="M80.571,110.543c-0.103-0.293,0.051-0.613,0.342-0.716c0.292-0.103,0.613,0.051,0.716,0.342
		c0.449,1.268,1.652,2.12,2.994,2.12c1.342,0,2.545-0.852,2.995-2.12c0.103-0.293,0.423-0.445,0.716-0.342
		c0.293,0.103,0.445,0.423,0.342,0.716c-0.607,1.715-2.236,2.867-4.053,2.867C82.807,113.41,81.179,112.257,80.571,110.543
		L80.571,110.543z M80.571,110.543"/>
</g>
</svg>
