<?xml version="1.0" encoding="utf-8"?>
<!-- Generator: Adobe Illustrator 17.0.0, SVG Export Plug-In . SVG Version: 6.00 Build 0)  -->
<!DOCTYPE svg PUBLIC "-//W3C//DTD SVG 1.1//EN" "http://www.w3.org/Graphics/SVG/1.1/DTD/svg11.dtd">
<svg version="1.1" id="Layer_1" xmlns="http://www.w3.org/2000/svg" xmlns:xlink="http://www.w3.org/1999/xlink" x="0px" y="0px"
	 width="200px" height="200px" viewBox="0 0 200 200" enable-background="new 0 0 200 200" xml:space="preserve">
<path fill="#EFC703" d="M99.545,80.043c-2.247,0-3.079,0.908-3.509,1.592c-2.389,3.793,0.469,13.856,3.509,21.233
	c3.04-7.377,5.898-17.439,3.508-21.235C102.623,80.951,101.791,80.043,99.545,80.043 M81.805,93.642c-1.339,0-1.62,0.48-1.728,0.661
	c-0.903,1.536,0.241,5.489,1.728,8.916c1.486-3.426,2.632-7.379,1.729-8.916C83.426,94.122,83.143,93.642,81.805,93.642
	 M116.792,94.532c-1.544,0-1.841,0.532-1.94,0.705c-0.824,1.476,0.408,5.163,1.94,8.305c1.532-3.142,2.765-6.829,1.94-8.305
	C118.635,95.064,118.337,94.532,116.792,94.532 M128.707,113.597c-5.409,0-9.581-2.386-11.673-3.891
	c-1.823,1.896-3.989,2.994-6.457,3.272c-4.498,0.509-8.781-1.939-10.87-3.389c-2.796,2.596-5.847,3.84-9.022,3.828
	c-4.023-0.067-7.231-2.28-8.92-3.746c-1.873,1.485-5.636,3.746-11.195,3.746v-3.549c4.613,0,7.643-1.885,9.029-2.997
	c-1.624-3.184-4.856-10.489-2.581-14.365c0.647-1.1,2.003-2.414,4.787-2.414c2.785,0,4.141,1.312,4.788,2.414
	c2.283,3.888-0.982,11.235-2.599,14.399c1.25,1.102,3.765,2.924,6.775,2.963c0.033,0.002,0.067,0.002,0.1,0.002
	c2.244,0,4.442-1.007,6.548-2.997c-2.115-4.658-8.664-20.329-4.385-27.129c0.934-1.482,2.82-3.251,6.513-3.251
	c3.69,0,5.578,1.768,6.512,3.251c4.223,6.711-2.102,22.07-4.3,26.945c1.676,1.16,5.094,3.132,8.436,2.763
	c1.699-0.195,3.161-0.975,4.443-2.376c-1.65-2.915-5.019-9.743-2.882-13.568c0.643-1.152,2.04-2.525,5.037-2.525
	c2.999,0,4.396,1.372,5.039,2.525c2.081,3.728-1.062,10.303-2.75,13.335c2.787,2.079,10.817,6.573,20.785-1.011l2.149,2.822
	C137.147,112.356,132.605,113.597,128.707,113.597"/>
<path fill="#F3D542" d="M70.854,103.006c0-30.626,13.523-58.07,34.9-76.756c-32.601,10.284-56.241,40.758-56.241,76.756
	s23.64,66.473,56.241,76.756C84.377,161.077,70.854,133.628,70.854,103.006"/>
<path fill="#F3D542" d="M129.179,106.966c-1.217,22.936-12.434,42.953-29.188,56.099c24.827-6.406,43.741-28.288,45.172-55.251
	c1.432-26.965-15.063-50.726-39.07-59.721C121.361,62.941,130.396,84.03,129.179,106.966"/>
</svg>
