<?xml version="1.0" encoding="utf-8"?>
<!-- Generator: Adobe Illustrator 17.0.0, SVG Export Plug-In . SVG Version: 6.00 Build 0)  -->
<!DOCTYPE svg PUBLIC "-//W3C//DTD SVG 1.1//EN" "http://www.w3.org/Graphics/SVG/1.1/DTD/svg11.dtd">
<svg version="1.1" id="Layer_1" xmlns="http://www.w3.org/2000/svg" xmlns:xlink="http://www.w3.org/1999/xlink" x="0px" y="0px"
	 width="200px" height="200px" viewBox="0 0 200 200" enable-background="new 0 0 200 200" xml:space="preserve">
<g>
	<rect x="57" y="73.758" fill="#F8E68D" width="87" height="87"/>
	<circle fill="#EFC703" cx="68.281" cy="113.334" r="2.654"/>
	<circle fill="#EFC703" cx="132.717" cy="113.334" r="2.654"/>
	<path fill="#EFC703" d="M123.926,122.758c0,12-10.377,23.179-23.179,23.179s-23.179-11.179-23.179-23.179H123.926z"/>
	<path fill="#F3D542" d="M57,124.69c-7,0-11.589-5.189-11.589-11.589c0-6.401,4.589-11.589,11.589-11.589V124.69z"/>
	<path fill="#F3D542" d="M144,101.512c7,0,11.589,5.189,11.589,11.589c0,6.401-4.589,11.589-11.589,11.589V101.512z"/>
	<rect x="94" y="55" fill="#EFC703" width="12" height="19"/>
	<circle fill="#F3D542" cx="100.381" cy="47.001" r="11.993"/>
</g>
</svg>
