<?xml version="1.0" encoding="utf-8"?>
<!-- Generator: Adobe Illustrator 17.0.0, SVG Export Plug-In . SVG Version: 6.00 Build 0)  -->
<!DOCTYPE svg PUBLIC "-//W3C//DTD SVG 1.1//EN" "http://www.w3.org/Graphics/SVG/1.1/DTD/svg11.dtd">
<svg version="1.1" id="Layer_1" xmlns="http://www.w3.org/2000/svg" xmlns:xlink="http://www.w3.org/1999/xlink" x="0px" y="0px"
	 width="200px" height="200px" viewBox="0 0 200 200" enable-background="new 0 0 200 200" xml:space="preserve">
<polygon fill="#F8856F" points="128,147 128,155 155,155 155,44 128,44 128,52 147,52 147,147 "/>
<polygon fill="#F8856F" points="73,52 73,44 46,44 46,155 73,155 73,147 54,147 54,52 "/>
<path fill="#E63C2F" d="M95.154,53.234c0,0,0,9.384,0,16.552s-6.583,11.426-6.583,11.426v62.537h23.04V81.211
	c0,0-4.937-2.843-4.937-11.426s0-16.552,0-16.552H95.154z"/>
</svg>
