<?xml version="1.0" encoding="utf-8"?>
<!-- Generator: Adobe Illustrator 17.0.0, SVG Export Plug-In . SVG Version: 6.00 Build 0)  -->
<!DOCTYPE svg PUBLIC "-//W3C//DTD SVG 1.1//EN" "http://www.w3.org/Graphics/SVG/1.1/DTD/svg11.dtd">
<svg version="1.1" id="Layer_1" xmlns="http://www.w3.org/2000/svg" xmlns:xlink="http://www.w3.org/1999/xlink" x="0px" y="0px"
	 width="200px" height="200px" viewBox="0 0 200 200" enable-background="new 0 0 200 200" xml:space="preserve">
<g>
	<g>
		<g>
			<path fill="#EC008C" stroke="#E63C2F" stroke-width="6.2213" stroke-linejoin="round" d="M100.903,97.6L54.71,45.625v103.942
				h92.387V45.625L100.903,97.6z M56.959,51.534l42.45,47.747l-42.45,47.752V51.534z M59.708,147.32l41.194-46.343l41.2,46.343
				H59.708z M102.407,99.281l42.453-47.747v95.499L102.407,99.281z"/>
		</g>
		<polygon fill="#E63C2F" points="74.369,145.728 106.301,109.81 108.068,111.798 77.901,145.728 		"/>
		<polygon fill="#E63C2F" points="85.972,145.728 112.102,116.323 113.867,118.324 89.514,145.728 		"/>
		<polygon fill="#E63C2F" points="97.571,145.728 117.91,122.856 119.668,124.852 101.104,145.728 		"/>
		<polygon fill="#E63C2F" points="109.182,145.728 123.71,129.387 125.476,131.378 112.721,145.728 		"/>
		<polygon fill="#E63C2F" points="120.785,145.728 129.511,135.918 131.276,137.907 124.322,145.728 		"/>
		<polygon fill="#FFFFFF" stroke="#E63C2F" stroke-width="1.1686" stroke-miterlimit="10" points="132.42,145.728 135.811,141.909 
			139.214,145.728 		"/>
	</g>
</g>
</svg>
