<?xml version="1.0" encoding="utf-8"?>
<!-- Generator: Adobe Illustrator 17.0.0, SVG Export Plug-In . SVG Version: 6.00 Build 0)  -->
<!DOCTYPE svg PUBLIC "-//W3C//DTD SVG 1.1//EN" "http://www.w3.org/Graphics/SVG/1.1/DTD/svg11.dtd">
<svg version="1.1" id="Layer_1" xmlns="http://www.w3.org/2000/svg" xmlns:xlink="http://www.w3.org/1999/xlink" x="0px" y="0px"
	 width="200px" height="200px" viewBox="0 0 200 200" enable-background="new 0 0 200 200" xml:space="preserve">
<path fill="#E63C2F" d="M172.5,129.169H16.25c0.011,11.305,8.63,16.55,15.567,16.581h125.119
	C165.211,145.719,172.462,139.213,172.5,129.169L172.5,129.169z"/>
<path fill="#F5755F" d="M142.809,49.391H49.58v61.163c0.014,8.306,7.167,14.877,14.892,14.892h60.484
	c8.719-0.017,14.667-7.35,14.638-14.892v-5.073c17.261-0.014,29.784-12.973,29.778-28.084
	C169.378,62.016,157.102,49.38,142.809,49.391z M139.594,93.808V60.897h3.216c11.825-0.019,15.619,11.166,15.562,16.584
	C158.383,86.23,151.903,94.622,139.594,93.808z"/>
</svg>
