<?xml version="1.0" encoding="utf-8"?>
<!-- Generator: Adobe Illustrator 16.2.1, SVG Export Plug-In . SVG Version: 6.00 Build 0)  -->
<!DOCTYPE svg PUBLIC "-//W3C//DTD SVG 1.1//EN" "http://www.w3.org/Graphics/SVG/1.1/DTD/svg11.dtd">
<svg version="1.1" xmlns="http://www.w3.org/2000/svg" xmlns:xlink="http://www.w3.org/1999/xlink" x="0px" y="0px"
	 width="195.289px" height="196.746px" viewBox="0 0 195.289 196.746" enable-background="new 0 0 195.289 196.746"
	 xml:space="preserve">
<g id="marker">
	<path fill="none" stroke="#000000" stroke-width="3" d="M98.828,111.876"/>
	<path fill="#57C0E8" d="M99.029,169.413c0.985-19.151,11.538-50.256,26.833-69.833c8.333-10.667,12.167-21.062,12.167-27.37
		c0-21.907-17.551-39.667-39.2-39.667h-0.001c-21.649,0-39.2,17.76-39.2,39.667c0,6.308,3.834,16.703,12.167,27.37
		c15.295,19.577,25.848,50.682,26.833,69.833H99.029z"/>
</g>
<g id="dot">
	<circle fill="#ABE2EF" cx="98.628" cy="70.746" r="16.625"/>
</g>
<g id="letter_arial_font" display="none">
	<g display="inline">
		<path d="M77.421,89.776l17.594-45.812h6.531l18.75,45.812h-6.906l-5.344-13.875H88.89l-5.031,13.875H77.421z M90.64,70.964h15.531
			l-4.781-12.688c-1.459-3.854-2.542-7.021-3.25-9.5c-0.584,2.938-1.406,5.854-2.469,8.75L90.64,70.964z"/>
	</g>
</g>
</svg>
