<?xml version="1.0" encoding="utf-8"?>
<!-- Generator: Adobe Illustrator 17.0.0, SVG Export Plug-In . SVG Version: 6.00 Build 0)  -->
<!DOCTYPE svg PUBLIC "-//W3C//DTD SVG 1.1//EN" "http://www.w3.org/Graphics/SVG/1.1/DTD/svg11.dtd">
<svg version="1.1" id="Layer_1" xmlns="http://www.w3.org/2000/svg" xmlns:xlink="http://www.w3.org/1999/xlink" x="0px" y="0px"
	 width="200px" height="200px" viewBox="0 0 200 200" enable-background="new 0 0 200 200" xml:space="preserve">
<g>
	<polygon fill="#F3D542" points="144.687,128.486 100,157.5 100,40.833 151.181,61.82 	"/>
	<polygon fill="#F7E381" points="56.225,128.486 101,155.82 101,40.833 49.775,61.82 	"/>
	<polygon fill="none" stroke="#EFC703" stroke-width="5.4974" stroke-miterlimit="10" points="100.118,154.37 143.868,129.402 
		152.42,62.212 100.5,43.582 48.58,62.212 57.132,129.402 	"/>
	<path fill="#E2E2E2" d="M101.05,57.661l-29.946,67.173h11.539l5.495-15.293h26.924l7.006,15.293h10.577L101.05,57.661z
		 M92.396,100.545l9.478-21.292l9.478,21.292H92.396z"/>
	<path fill="#F7F7F7" d="M101.309,57.707l-30.205,67.126h11.539l5.495-15.293h12.95 M92.396,100.545l8.692-18.757v18.757H92.396z"/>
</g>
</svg>
