<?xml version="1.0" encoding="utf-8"?>
<!-- Generator: Adobe Illustrator 17.0.0, SVG Export Plug-In . SVG Version: 6.00 Build 0)  -->
<!DOCTYPE svg PUBLIC "-//W3C//DTD SVG 1.1//EN" "http://www.w3.org/Graphics/SVG/1.1/DTD/svg11.dtd">
<svg version="1.1" id="Layer_1" xmlns="http://www.w3.org/2000/svg" xmlns:xlink="http://www.w3.org/1999/xlink" x="0px" y="0px"
	 width="200px" height="200px" viewBox="0 0 200 200" enable-background="new 0 0 200 200" xml:space="preserve">
<g>
	<path fill="#F3D542" d="M167,143.407c0,0.327-0.265,0.593-0.593,0.593H33.593c-0.327,0-0.593-0.265-0.593-0.593V58.593
		C33,58.265,33.265,58,33.593,58h132.814c0.327,0,0.593,0.265,0.593,0.593V143.407z"/>
	<polyline fill="#EFC703" points="167,58 167,73 33,73 33,58 	"/>
	<rect x="45" y="96" fill="#F7E381" width="110" height="8"/>
	<rect x="45" y="81" fill="#F7E381" width="62" height="8"/>
	<rect x="45" y="127" fill="#F7E381" width="62" height="8"/>
	<rect x="45" y="112" fill="#F7E381" width="85" height="8"/>
	<circle fill="#F7E381" cx="159.852" cy="65.318" r="3.437"/>
	<circle fill="#F7E381" cx="151.038" cy="65.318" r="3.437"/>
</g>
</svg>
