<?xml version="1.0" encoding="utf-8"?>
<!-- Generator: Adobe Illustrator 17.0.0, SVG Export Plug-In . SVG Version: 6.00 Build 0)  -->
<!DOCTYPE svg PUBLIC "-//W3C//DTD SVG 1.1//EN" "http://www.w3.org/Graphics/SVG/1.1/DTD/svg11.dtd">
<svg version="1.1" id="Layer_1" xmlns="http://www.w3.org/2000/svg" xmlns:xlink="http://www.w3.org/1999/xlink" x="0px" y="0px"
	 width="200px" height="200px" viewBox="0 0 200 200" enable-background="new 0 0 200 200" xml:space="preserve">
<g>
	<g>
		<g>
			<path fill="#EFC703" d="M145.192,69.855c-0.022,1.038-0.424,1.982-0.761,2.935c-3.041,8.596-6.832,16.842-11.633,24.603
				c-0.598,0.967-0.691,1.744-0.177,2.801c1.888,3.88,3.698,7.8,5.467,11.736c0.506,1.127,0.88,1.219,1.798,0.353
				c3.581-3.38,7.237-6.681,10.85-10.027c0.908-0.841,1.884-1.423,3.153-0.991c1.244,0.423,1.785,1.402,1.977,2.652
				c0.27,1.756,0.653,3.497,0.859,5.259c0.138,1.181,0.705,1.773,1.804,2.137c2.65,0.878,5.263,1.867,7.903,2.779
				c1.352,0.467,2.392,1.214,2.452,2.755c0.057,1.473-0.894,2.284-2.127,2.859c-14.585,6.808-29.167,13.621-43.75,20.434
				c-7.222,3.374-14.459,6.718-21.653,10.151c-1.629,0.778-3.09,0.882-4.801,0.25c-12.05-4.451-24.122-8.841-36.2-13.217
				c-1.474-0.534-2.476-1.371-3.148-2.836c-3.94-8.583-7.965-17.126-11.929-25.698c-0.47-1.017-1.098-1.74-2.104-2.273
				c-5.025-2.663-10.009-5.401-15.025-8.081c-1.161-0.621-2.001-1.4-1.956-2.812c0.045-1.405,0.93-2.178,2.106-2.725
				c16.939-7.887,33.879-15.772,50.814-23.665c12.794-5.963,25.583-11.938,38.374-17.906c1.15-0.537,2.32-1.035,3.453-1.606
				c1.224-0.617,2.379-0.58,3.386,0.352c1.075,0.994,1.081,2.194,0.514,3.49c-2.014,4.606-3.97,9.237-6.019,13.827
				c-0.5,1.121-0.546,2.09,0.015,3.181c0.765,1.489,1.507,3,2.115,4.558c0.462,1.184,1.032,1.207,2.075,0.712
				c5.918-2.806,11.858-5.566,17.806-8.311C143.168,66.451,145.2,67.564,145.192,69.855z"/>
		</g>
	</g>
	<path fill="#F7E381" d="M33.409,95.603l33.144-15.62c0,0,13.715-6.476,16.382,16.001c0,0,0.381,3.048,4.953,0.762
		s48.764-22.477,48.764-22.477s-11.81,34.668-35.43,44.954c-4.953,2.286-3.048,6.857,1.905,4.572
		c0.381,0,11.048-4.953,16.001-11.048c0,0,7.238,4.953,10.667,9.905c0,0,15.848-7.162,22.325-14.782c0,0-0.762,6.095,0.381,6.857
		s8.381,2.667,8.381,2.667l-62.098,28.573l-37.944-13.791l-13.334-28.954L33.409,95.603z"/>
	<circle fill="#F3D542" cx="57.981" cy="94.689" r="5.524"/>
	<polygon fill="#F3D542" points="44.686,90.346 47.505,103.222 33.409,95.603 	"/>
</g>
</svg>
