<?xml version="1.0" encoding="utf-8"?>
<!-- Generator: Adobe Illustrator 17.0.0, SVG Export Plug-In . SVG Version: 6.00 Build 0)  -->
<!DOCTYPE svg PUBLIC "-//W3C//DTD SVG 1.1//EN" "http://www.w3.org/Graphics/SVG/1.1/DTD/svg11.dtd">
<svg version="1.1" id="Layer_1" xmlns="http://www.w3.org/2000/svg" xmlns:xlink="http://www.w3.org/1999/xlink" x="0px" y="0px"
	 width="168px" height="168px" viewBox="0 0 168 168" enable-background="new 0 0 168 168" xml:space="preserve">
<path fill="#FFFFFF" d="M130.833,54.543c-3.446,1.528-7.15,2.561-11.037,3.026c3.967-2.378,7.014-6.144,8.449-10.632
	c-3.713,2.202-7.826,3.802-12.203,4.663c-3.505-3.735-8.5-6.068-14.027-6.068c-10.613,0-19.217,8.604-19.217,19.216
	c0,1.506,0.17,2.973,0.498,4.379c-15.971-0.802-30.131-8.452-39.609-20.078c-1.654,2.838-2.602,6.139-2.602,9.661
	c0,6.667,3.392,12.549,8.549,15.995c-3.15-0.1-6.113-0.964-8.704-2.404c-0.002,0.08-0.002,0.16-0.002,0.242
	c0,9.311,6.624,17.077,15.415,18.843c-1.612,0.439-3.31,0.674-5.063,0.674c-1.238,0-2.442-0.121-3.616-0.345
	c2.445,7.634,9.542,13.191,17.951,13.345c-6.577,5.154-14.863,8.226-23.866,8.226c-1.551,0-3.081-0.091-4.584-0.269
	c8.504,5.453,18.606,8.634,29.458,8.634c35.347,0,54.676-29.282,54.676-54.677c0-0.833-0.019-1.662-0.056-2.486
	C124.999,61.781,128.257,58.397,130.833,54.543z"/>
</svg>
