<?xml version="1.0" encoding="utf-8"?>
<!-- Generator: Adobe Illustrator 17.0.0, SVG Export Plug-In . SVG Version: 6.00 Build 0)  -->
<!DOCTYPE svg PUBLIC "-//W3C//DTD SVG 1.1//EN" "http://www.w3.org/Graphics/SVG/1.1/DTD/svg11.dtd">
<svg version="1.1" id="Layer_1" xmlns="http://www.w3.org/2000/svg" xmlns:xlink="http://www.w3.org/1999/xlink" x="0px" y="0px"
	 width="200px" height="200px" viewBox="0 0 200 200" enable-background="new 0 0 200 200" xml:space="preserve">
<path fill="#8BD0EE" d="M164,142.407c0,0.327-0.265,0.593-0.593,0.593H30.593c-0.327,0-0.593-0.265-0.593-0.593V57.593
	C30,57.265,30.265,57,30.593,57h132.814c0.327,0,0.593,0.265,0.593,0.593V142.407z"/>
<path fill="#57C1E8" d="M164,57v15H30V56.773c0-0.327,0.522,0.142,0.85,0.142"/>
<rect x="113" y="80" fill="#B5DFF3" width="40" height="50"/>
<rect x="44" y="95" fill="#B5DFF3" width="61" height="35"/>
<circle fill="#B5DFF3" cx="39.927" cy="64.235" r="3.437"/>
<rect x="44" y="80" fill="#B5DFF3" width="61" height="8"/>
</svg>
