<?xml version="1.0" encoding="utf-8"?>
<!-- Generator: Adobe Illustrator 17.0.0, SVG Export Plug-In . SVG Version: 6.00 Build 0)  -->
<!DOCTYPE svg PUBLIC "-//W3C//DTD SVG 1.1//EN" "http://www.w3.org/Graphics/SVG/1.1/DTD/svg11.dtd">
<svg version="1.1" id="Layer_1" xmlns="http://www.w3.org/2000/svg" xmlns:xlink="http://www.w3.org/1999/xlink" x="0px" y="0px"
	 width="200px" height="200px" viewBox="0 0 200 200" enable-background="new 0 0 200 200" xml:space="preserve">
<path fill="#8BD0EE" d="M170,142.407c0,0.327-0.265,0.593-0.593,0.593H36.593c-0.327,0-0.593-0.265-0.593-0.593V57.593
	C36,57.265,36.265,57,36.593,57h132.814c0.327,0,0.593,0.265,0.593,0.593V142.407z"/>
<polyline fill="#57C1E8" points="170,57 170,72 36,72 36,57 "/>
<path fill="#57C1E8" d="M37.222,56.884"/>
<rect x="48" y="95" fill="#B5DFF3" width="110" height="8"/>
<rect x="48" y="80" fill="#B5DFF3" width="62" height="8"/>
<rect x="48" y="126" fill="#B5DFF3" width="62" height="8"/>
<rect x="48" y="111" fill="#B5DFF3" width="85" height="8"/>
<circle fill="#B5DFF3" cx="162.852" cy="64.318" r="3.437"/>
<circle fill="#B5DFF3" cx="154.038" cy="64.318" r="3.437"/>
</svg>
