<?xml version="1.0" encoding="utf-8"?>
<!-- Generator: Adobe Illustrator 17.0.0, SVG Export Plug-In . SVG Version: 6.00 Build 0)  -->
<!DOCTYPE svg PUBLIC "-//W3C//DTD SVG 1.1//EN" "http://www.w3.org/Graphics/SVG/1.1/DTD/svg11.dtd">
<svg version="1.1" id="Layer_1" xmlns="http://www.w3.org/2000/svg" xmlns:xlink="http://www.w3.org/1999/xlink" x="0px" y="0px"
	 width="200px" height="200px" viewBox="0 0 200 200" enable-background="new 0 0 200 200" xml:space="preserve">
<path fill="#B5DFF3" d="M168,140.408c0,0.327-0.265,0.592-0.592,0.592H34.592c-0.327,0-0.592-0.265-0.592-0.592V55.592
	C34,55.265,34.265,55,34.592,55h132.816c0.327,0,0.592,0.265,0.592,0.592V140.408z"/>
<g>
	<g>
		
			<line fill="none" stroke="#8BD0EE" stroke-width="6" stroke-linecap="round" stroke-miterlimit="10" x1="133" y1="122" x2="128" y2="122"/>
		
			<path fill="none" stroke="#8BD0EE" stroke-width="6" stroke-linecap="round" stroke-miterlimit="10" stroke-dasharray="10.4217,10.4217" d="
			M117,122c0,0-30.377,0-39.191,0c-14.964,0-15.591-24.092-0.314-24.092c15.278,0,46.446-0.695,59.26-0.695S151.032,77,137.502,77
			C127.744,77,80,77,80,77"/>
		
			<line fill="none" stroke="#8BD0EE" stroke-width="6" stroke-linecap="round" stroke-miterlimit="10" x1="75" y1="77" x2="70" y2="77"/>
	</g>
</g>
<path fill="#57C1E8" d="M43.256,78.338l9.238,13.922L61.702,79h-0.003c0.715-1,1.127-3.732,1.127-5.416
	c0-5.706-4.626-10.702-10.332-10.702s-10.928,5.176-10.657,10.457C41.973,76.317,43.256,78.338,43.256,78.338z M52.563,79.179
	c-3.446,0-6.24-2.794-6.24-6.24s2.794-6.24,6.24-6.24c3.446,0,6.24,2.794,6.24,6.24S56.009,79.179,52.563,79.179z"/>
<g>
	
		<line fill="none" stroke="#57C1E8" stroke-width="4.7789" stroke-linecap="round" stroke-miterlimit="10" x1="141.853" y1="113.469" x2="158.273" y2="129.889"/>
	
		<line fill="none" stroke="#57C1E8" stroke-width="4.7789" stroke-linecap="round" stroke-miterlimit="10" x1="158.273" y1="113.469" x2="141.853" y2="129.889"/>
</g>
</svg>
